<svg id="_0224_social_media_1" xmlns="http://www.w3.org/2000/svg" xmlns:xlink="http://www.w3.org/1999/xlink" viewBox="0 0 500 500" data-imageid="social-media-1-48" imageName="Social Media 1" class="illustrations_image" style="width: 166px;"><defs><style>.cls-1_social-media-1-48{fill:url(#linear-gradient);}.cls-1_social-media-1-48,.cls-2_social-media-1-48,.cls-3_social-media-1-48,.cls-4_social-media-1-48,.cls-5_social-media-1-48,.cls-6_social-media-1-48,.cls-7_social-media-1-48,.cls-8_social-media-1-48,.cls-9_social-media-1-48,.cls-10_social-media-1-48,.cls-11_social-media-1-48,.cls-12_social-media-1-48,.cls-13_social-media-1-48,.cls-14_social-media-1-48,.cls-15_social-media-1-48,.cls-16_social-media-1-48,.cls-17_social-media-1-48,.cls-18_social-media-1-48,.cls-19_social-media-1-48,.cls-20_social-media-1-48{stroke-width:0px;}.cls-2_social-media-1-48{opacity:.51;}.cls-2_social-media-1-48,.cls-16_social-media-1-48{isolation:isolate;}.cls-2_social-media-1-48,.cls-16_social-media-1-48,.cls-20_social-media-1-48{fill:#68e6fd;}.cls-3_social-media-1-48{fill:url(#linear-gradient-11-social-media-1-48);}.cls-4_social-media-1-48{fill:url(#linear-gradient-12-social-media-1-48);}.cls-5_social-media-1-48{fill:url(#linear-gradient-13-social-media-1-48);}.cls-6_social-media-1-48{fill:url(#linear-gradient-10-social-media-1-48);}.cls-7_social-media-1-48{fill:url(#linear-gradient-14-social-media-1-48);}.cls-8_social-media-1-48{fill:url(#linear-gradient-4-social-media-1-48);}.cls-9_social-media-1-48{fill:url(#linear-gradient-2-social-media-1-48);}.cls-10_social-media-1-48{fill:url(#linear-gradient-3-social-media-1-48);}.cls-11_social-media-1-48{fill:url(#linear-gradient-8-social-media-1-48);}.cls-12_social-media-1-48{fill:url(#linear-gradient-9-social-media-1-48);}.cls-13_social-media-1-48{fill:url(#linear-gradient-7-social-media-1-48);}.cls-14_social-media-1-48{fill:url(#linear-gradient-5-social-media-1-48);}.cls-15_social-media-1-48{fill:url(#linear-gradient-6-social-media-1-48);}.cls-16_social-media-1-48{opacity:.24;}.cls-17_social-media-1-48{fill:#f4a882;}.cls-18_social-media-1-48{fill:#231f20;}.cls-19_social-media-1-48{fill:#fff;}</style><linearGradient id="linear-gradient-social-media-1-48" x1="560.57" y1="15.11" x2="505.68" y2="1198.33" gradientTransform="translate(-322.49 350.42)" gradientUnits="userSpaceOnUse"><stop offset="0" stop-color="#010101" stop-opacity="0"/><stop offset=".95" stop-color="#010101"/></linearGradient><linearGradient id="linear-gradient-2-social-media-1-48" x1="-5804.38" y1="17.26" x2="-5793.3" y2="-248.52" gradientTransform="translate(-5677.47 347.13) rotate(-180) scale(1 -1)" gradientUnits="userSpaceOnUse"><stop offset="0" stop-color="#fff" stop-opacity="0"/><stop offset=".95" stop-color="#fff"/></linearGradient><linearGradient id="linear-gradient-3-social-media-1-48" x1="525.13" y1="314.93" x2="628.3" y2="-308.62" gradientTransform="translate(-350.32 347.13)" xlink:href="#linear-gradient-2-social-media-1-48"/><linearGradient id="linear-gradient-4-social-media-1-48" x1="-5812.53" y1="-61.22" x2="-5983.32" y2="-59.86" gradientTransform="translate(-5517.22 347.13) rotate(-180) scale(1 -1)" xlink:href="#linear-gradient-2-social-media-1-48"/><linearGradient id="linear-gradient-5-social-media-1-48" x1="554.01" y1="27.39" x2="557.27" y2="7.7" gradientTransform="translate(-322.49 350.42)" xlink:href="#linear-gradient-2-social-media-1-48"/><linearGradient id="linear-gradient-6-social-media-1-48" x1="559.49" y1="37.3" x2="568.48" y2="64.91" gradientTransform="translate(-350.32 347.13)" xlink:href="#linear-gradient-social-media-1-48"/><linearGradient id="linear-gradient-7-social-media-1-48" x1="564.72" y1="54.15" x2="567.6" y2="76.52" gradientTransform="translate(-350.32 347.13)" xlink:href="#linear-gradient-social-media-1-48"/><linearGradient id="linear-gradient-8-social-media-1-48" x1="560.42" y1="15.19" x2="534.84" y2="77.03" gradientTransform="translate(-350.32 347.13)" xlink:href="#linear-gradient-social-media-1-48"/><linearGradient id="linear-gradient-9-social-media-1-48" x1="542.5" y1="-18.64" x2="570.08" y2="-18.64" gradientTransform="translate(-350.32 347.13)" xlink:href="#linear-gradient-social-media-1-48"/><linearGradient id="linear-gradient-10-social-media-1-48" x1="523.67" y1="40.43" x2="630.78" y2="6.76" gradientTransform="translate(-350.32 347.13)" xlink:href="#linear-gradient-social-media-1-48"/><linearGradient id="linear-gradient-11-social-media-1-48" x1="616.37" y1="55.82" x2="630.76" y2="55.82" gradientTransform="translate(-350.32 347.13)" xlink:href="#linear-gradient-social-media-1-48"/><linearGradient id="linear-gradient-12-social-media-1-48" x1="537.97" y1="7.99" x2="532.76" y2="-41.96" gradientTransform="translate(-350.32 347.13)" xlink:href="#linear-gradient-social-media-1-48"/><linearGradient id="linear-gradient-13-social-media-1-48" x1="536.32" y1="-2.35" x2="544.55" y2="-32.5" gradientTransform="translate(-350.32 347.13)" xlink:href="#linear-gradient-social-media-1-48"/><linearGradient id="linear-gradient-14-social-media-1-48" x1="533.19" y1=".71" x2="539.69" y2="-23.12" gradientTransform="translate(-350.32 347.13)" xlink:href="#linear-gradient-social-media-1-48"/></defs><path id="background_social-media-1-48" class="cls-16_social-media-1-48" d="M117.67,461.58c7.14.42,13.7,4.38,21.24,5.38,50.64,6.85,101.98,6.85,152.63,0,23.8-3.19,46.97-9.31,70.95-10.75,24.58-1.49,50.07,1.04,73.76-7.16,28.32-9.82,48.81-35.52,49.96-62.64,1.1-25.87-13.62-49.88-21.53-74.76-9.36-29.52-9.11-61.24.72-90.61,9.87-29.48,29.36-57.58,27.52-88.32-2.56-43.01-54.94-77.67-101.64-67.32-24.47,5.41-45.01,20.6-69.21,26.93-39.29,10.3-81.46-4.06-122.22,0-34.56,3.53-66.39,20.56-89.44,43.81-23.05,23.25-38.19,52.31-47.15,82.32-7.95,26.5-11.8,54.48-26.72,78.44-10.94,17.57-27.74,32.73-32.65,52.36-5.75,23.06-22.82,104.49,113.78,112.33Z"/><ellipse id="shadow_social-media-1-48" class="cls-1_social-media-1-48" cx="234.74" cy="437.45" rx="135.2" ry="22.36"/><g id="bubble_chat_2_social-media-1-48"><path class="cls-20_social-media-1-48" d="M63.41,256.28v41.53c0,9.61,7.77,17.4,17.38,17.41h3.21v18.42l9.49-18.29h72.22c9.61,0,17.41-7.79,17.41-17.41h0v-41.53c0-9.61-7.77-17.4-17.38-17.41h-84.92c-9.61,0-17.4,7.77-17.41,17.38,0,0,0,.01,0,.02v-.11Z"/><path class="cls-9_social-media-1-48" d="M63.41,256.28v41.53c0,9.61,7.77,17.4,17.38,17.41h3.21v18.42l9.49-18.29h72.22c9.61,0,17.41-7.79,17.41-17.41h0v-41.53c0-9.61-7.77-17.4-17.38-17.41h-84.92c-9.61,0-17.4,7.77-17.41,17.38,0,0,0,.01,0,.02v-.11Z"/><rect class="cls-20_social-media-1-48" x="78.84" y="253.98" width="89.15" height="4.98"/><rect class="cls-20_social-media-1-48" x="78.84" y="267.14" width="89.15" height="4.98"/><rect class="cls-20_social-media-1-48" x="78.84" y="280.29" width="89.15" height="4.98"/><path class="cls-19_social-media-1-48" d="M118.24,203.51s-5.14-6.76-9.95-.32,10.92,14.13,10.92,14.13c0,0,11.18-7.99,9.95-12.86-.9-3.12-4.16-4.92-7.28-4.02-1.59.46-2.92,1.57-3.65,3.06Z"/><path class="cls-19_social-media-1-48" d="M134.2,177.56s-3.69-4.79-7.17-.22c-3.48,4.57,7.87,10.17,7.87,10.17,0,0,8.08-5.78,7.16-9.25-.65-2.25-3-3.54-5.24-2.89-1.14.33-2.09,1.12-2.62,2.19Z"/></g><g id="phone_social-media-1-48"><rect class="cls-20_social-media-1-48" x="152.5" y="112.39" width="172.43" height="333.07" rx="25.28" ry="25.28"/><path class="cls-10_social-media-1-48" d="M312.84,140.52v276.31h-149.06V140.52c0-5.77,4.68-10.44,10.45-10.46h38.43c0,4.87,3.96,8.82,8.83,8.83h34.66c4.89,0,8.86-3.95,8.86-8.83h0s37.37,0,37.37,0c5.77,0,10.45,4.69,10.46,10.46Z"/><rect class="cls-16_social-media-1-48" x="170.55" y="342.27" width="133.86" height="68.01"/><rect class="cls-2_social-media-1-48" x="170.25" y="192.76" width="135.2" height="130.11"/><circle class="cls-16_social-media-1-48" cx="185.9" cy="175.74" r="11.95"/><rect class="cls-2_social-media-1-48" x="203.45" y="169.38" width="49.46" height="5.77"/><rect class="cls-16_social-media-1-48" x="203.45" y="180.3" width="67.32" height="2.87"/></g><g id="bubble_chat_1_social-media-1-48"><path class="cls-20_social-media-1-48" d="M320.25,282.7c0,19.71,20.51,35.66,45.79,35.66,4.25.01,8.49-.46,12.63-1.41l19.98,10.22-7.99-14.37c12.78-6.29,21.21-17.36,21.21-30.06,0-19.71-20.51-35.66-45.81-35.66s-45.82,15.91-45.82,35.62Z"/><path class="cls-8_social-media-1-48" d="M319.22,282.19c0,19.71,20.51,35.66,45.79,35.66,4.25.01,8.48-.46,12.62-1.41l20,10.24-7.99-14.45c12.78-6.29,21.21-17.36,21.21-30.07,0-19.69-20.51-35.65-45.79-35.65s-45.84,15.99-45.84,35.68Z"/><path class="cls-19_social-media-1-48" d="M349.12,183.15s-6.15-7.99-11.93-.38c-5.78,7.6,13.08,16.93,13.08,16.93,0,0,13.48-9.58,11.95-15.38-1.07-3.74-4.97-5.91-8.71-4.84-1.92.55-3.51,1.88-4.39,3.67Z"/><path class="cls-19_social-media-1-48" d="M385.26,206.32s-8.29-10.89-16.08-.51c-7.79,10.38,17.57,22.81,17.57,22.81,0,0,18.16-12.95,16.08-20.76-1.5-5.02-6.79-7.87-11.81-6.37-2.5.75-4.59,2.5-5.76,4.83Z"/></g><g id="character_social-media-1-48"><polygon class="cls-18_social-media-1-48" points="227.67 367.38 235.35 359.79 240.49 360.94 240.49 362.41 232.39 371.25 225.56 371.57 227.67 367.38"/><polygon class="cls-14_social-media-1-48" points="234.76 360.88 238.66 361.95 231.24 369.59 228.39 369.62 228.86 366.6 234.76 360.88"/><path class="cls-18_social-media-1-48" d="M191.39,389.26s29.56-13.61,35.14-11.44c5.57,2.17,20.56,29.08,20.56,29.08l-10.54-.21-16.82-14.5-14.37,11.98-20.76-1.23,6.8-13.69Z"/><path class="cls-15_social-media-1-48" d="M191.39,389.26s29.56-13.61,35.14-11.44c5.57,2.17,20.56,29.08,20.56,29.08l-10.54-.21-16.82-14.5-14.37,11.98-20.76-1.23,6.8-13.69Z"/><path class="cls-18_social-media-1-48" d="M167.85,409.55s2,6.84,7.35,7.57,85.38-1.17,85.38-1.17c1.33-.76,2.25-2.07,2.52-3.58.27-1.96-.1-3.95-1.05-5.69l-66.97-7.75-27.23,10.61Z"/><path class="cls-13_social-media-1-48" d="M167.85,409.55s2,6.84,7.35,7.57,85.38-1.17,85.38-1.17c1.33-.76,2.25-2.07,2.52-3.58.27-1.96-.1-3.95-1.05-5.69l-66.97-7.75-27.23,10.61Z"/><path class="cls-17_social-media-1-48" d="M223.05,371.34c2.27.04,4.49.72,6.39,1.96,1.92,1.29,3.05,3.47,3,5.78.01.33-.09.65-.3.91-.24.23-.55.35-.88.35-1.8,0-2.97-2.06-4.79-2.52-1.16-.08-2.32-.06-3.47.08-1.4-.11-2.65-.94-3.31-2.19-.53-1.05-.56-2.29-.08-3.37.75-1.13,2.22-1.09,3.43-1.01Z"/><path class="cls-20_social-media-1-48" d="M203.98,370.82c-.01.21.06.43.19.59.17.11.37.16.57.14l15.7-.32c.37,1.89.37,3.84,0,5.73-.02.31-.13.61-.32.86-.34.28-.76.45-1.2.46-6.63.85-13.17,2.35-19.5,4.49-.64.28-1.34.39-2.03.3-1.29-.29-1.87-1.76-2.14-3.05-.91-4.33-.57-8.82-1.09-13.21-.5-2.11-.42-4.31.21-6.39.81-1.82,6.66-6.31,7.89-3.4.63,2.23.96,4.53,1.01,6.85.34,2.32.56,4.62.7,6.93Z"/><path class="cls-11_social-media-1-48" d="M203.98,370.82c-.01.21.06.43.19.59.17.11.37.16.57.14l15.7-.32c.37,1.89.37,3.84,0,5.73-.02.31-.13.61-.32.86-.34.28-.76.45-1.2.46-6.63.85-13.17,2.35-19.5,4.49-.64.28-1.34.39-2.03.3-1.29-.29-1.87-1.76-2.14-3.05-.91-4.33-.57-8.82-1.09-13.21-.5-2.11-.42-4.31.21-6.39.81-1.82,6.66-6.31,7.89-3.4.63,2.23.96,4.53,1.01,6.85.34,2.32.56,4.62.7,6.93Z"/><path class="cls-17_social-media-1-48" d="M223.27,371.45c1.15-2.67,3.35-4.76,6.09-5.77.64,1.09-1.39,2.6-.53,3.53.36.28.82.39,1.26.3l5.19-.22c.16-.03.33,0,.46.1.1.1.16.23.16.37.05,1.06-.43,2.08-1.28,2.72-.81.69-1.72,1.2-2.49,1.9-1.23,1.15-2.03,2.84-3.55,3.58-1.22.36-2.47.66-3.72.89-1.49.54-2.86,1.88-4.38,1.44-.72-.21.1-4.47.45-4.97.96-1.17,1.74-2.47,2.33-3.87Z"/><path class="cls-17_social-media-1-48" d="M201.58,345.69c.92.82,1.9,1.55,2.95,2.19.4.29.87.44,1.36.45.55-.11,1.05-.41,1.39-.86.93-1.03,1.7-2.19,2.28-3.45.07-.19.18-.37.32-.51.5-.43,1.28,0,1.9-.22.45-.19.76-.61.8-1.1.05-.48.02-.97-.1-1.44-.2-1.05-.26-2.13-.18-3.19.42-1.66.58-3.38.5-5.09-.42-1.46-1.26-2.75-2.43-3.72-.78-.81-1.69-1.48-2.7-1.98-1.19-.49-2.47-.73-3.75-.72-1.57-.17-3.15.17-4.52.96-1.18.99-2.08,2.28-2.6,3.74l-5.46,11.91c-.17.31-.26.65-.26,1.01.05.3.18.58.38.81,1.1,1.55,2.54,2.83,4.22,3.74.94.5,2.62,1.18,3.64.54s1.49-2.22,2.25-3.05Z"/><path class="cls-18_social-media-1-48" d="M218.02,330.44c1.62-1.85,2.16-4.42,1.42-6.77-.1-.38-.3-.72-.57-1.01-.38-.28-.82-.46-1.29-.53-3.11-.71-6.1-1.86-8.88-3.43-1.42-1.03-3.06-1.72-4.79-2-1.99-.02-3.79,1.16-4.57,2.99-.92-.58-2.06-.66-3.05-.21-.97.46-1.78,1.2-2.33,2.12-1.27,2.56-1.82,5.42-1.6,8.27v9.2c-.04.17-.04.34,0,.51.19.36.61.54,1.01.43.38-.11.73-.3,1.02-.57,1.2-.94,2.36-1.9,3.55-2.86-1.09-1.63-.88-3.81.51-5.19.16-.18.36-.3.59-.35.4-.02.78.15,1.02.46,1.5,1.63,1.45,4.15-.1,5.73,1.31-.51,2.37-1.51,2.94-2.8.57-1.27,1.3-2.46,2.19-3.53.93-1.08,2.47-1.42,3.77-.81,1.6.99,1.85,2.67,4.06,2.67,1.95-.04,3.8-.89,5.11-2.33Z"/><path class="cls-12_social-media-1-48" d="M218.02,330.44c1.62-1.85,2.16-4.42,1.42-6.77-.1-.38-.3-.72-.57-1.01-.38-.28-.82-.46-1.29-.53-3.11-.71-6.1-1.86-8.88-3.43-1.42-1.03-2.81-1.5-4.54-1.78-1.99-.02-4.04.94-4.82,2.77-.92-.58-2.06-.66-3.05-.21-.97.46-1.78,1.2-2.33,2.12-1.27,2.56-1.82,5.42-1.6,8.27v9.2c-.04.17-.04.34,0,.51.19.36.61.54,1.01.43.38-.11.73-.3,1.02-.57,1.2-.94,2.36-1.9,3.55-2.86-1.09-1.63-.88-3.81.51-5.19.16-.18.36-.3.59-.35.4-.02.78.15,1.02.46,1.5,1.63,1.45,4.15-.1,5.73,1.31-.51,2.37-1.51,2.94-2.8.57-1.27,1.3-2.46,2.19-3.53.93-1.08,2.47-1.42,3.77-.81,1.6.99,1.85,2.67,4.06,2.67,1.95-.04,3.8-.89,5.11-2.33Z"/><path class="cls-20_social-media-1-48" d="M195.02,391.67c.45,2.41.45,4.89,0,7.3-.93,2.74-2.75,5.1-5.16,6.71-4.68,3.41-10.33,5.23-16.12,5.21-3.19,0-6.8-.81-8.42-3.43-.88-1.8-1.21-3.83-.93-5.81l.46-10.32c.07-7.52.94-15.02,2.6-22.36,1.74-7.49,5.76-14.26,11.5-19.37,1.92-1.71,4.19-2.98,6.64-3.72,9.2-2.54,19.29,3.11,15.97,12.41-3.87,11.45-7.99,21.03-6.56,33.4Z"/><path class="cls-6_social-media-1-48" d="M181.24,391.13c.14.81-.29,2.91.14,3.61,1.05,1.68,1.9,14.21,3.82,13.74s7.99-6.9,9.58-8.13.48-10.7,0-12.36c-.28-.69-.69-1.32-1.2-1.87-1.75-2.61-2.61-5.71-2.44-8.85.16-3.11.05-6.23-.32-9.33-.62-3.19-2.64-6.9-6.12-7.63-4.58-.94-4.65,1.45-3.72,4.6,2.43,8.31-1.17,17.55.26,26.23Z"/><path class="cls-17_social-media-1-48" d="M268.14,408.25c.53.64.8,1.46.73,2.28.09.65.09,1.3,0,1.95-.12.64-.48,1.21-1.01,1.6-.66.33-1.4.46-2.14.38h-1.93c-.66.02-1.32-.07-1.95-.26-.65-.18-1.17-.65-1.41-1.28-.14-.48-.14-.99,0-1.47.35-1.6.81-3.83,2.73-3.85,1.28-.05,3.98-.26,4.97.64Z"/><path class="cls-18_social-media-1-48" d="M272.96,393.67c-1.69,3.5-3.59,6.9-5.69,10.17-.7.9-1.14,1.98-1.26,3.11.06.76.22,1.51.48,2.24.32,1.18.41,2.41.26,3.63-.13.69-.21,1.39-.22,2.09,0,.71.34,1.37.93,1.77.45.24.96.35,1.47.32l6.12.27c.37.03.75,0,1.12-.08.7-.26,1.27-.78,1.6-1.45,2.89-4.71,1.93-10.72,2.94-16.15.59-2.22,1-4.47,1.23-6.76.13-1.36-.32-2.7-1.25-3.71-.91-.86-2.35-.82-3.21.09-.09.1-.17.2-.24.31"/><path class="cls-3_social-media-1-48" d="M272.96,393.67c-1.69,3.5-3.59,6.9-5.69,10.17-.7.9-1.14,1.98-1.26,3.11.06.76.22,1.51.48,2.24.32,1.18.41,2.41.26,3.63-.13.69-.21,1.39-.22,2.09,0,.71.34,1.37.93,1.77.45.24.96.35,1.47.32,2.04.1,1.9,0,3.95,0,.37.06.74.06,1.1,0,.69-.26,1.27-.77,1.6-1.44,2.89-4.71,2.64-9.97,3.64-15.4.59-2.22,1-4.47,1.23-6.76.13-1.36-.32-2.7-1.25-3.71-1.01-.91-1.39-1.33-1.96-.11"/><path class="cls-20_social-media-1-48" d="M181.44,360.31s-.14-8.94,7.86-9.68,9.25,7.71,8.98,10.06c-.27,2.35,1.25,15.84,1.25,15.84l21.45-1.41.81,6.18s-30.12,9.1-31.82,7.14-3.77-5.72-8.53-28.14Z"/><path class="cls-4_social-media-1-48" d="M173.09,356.44c3.13.27,6.27-.13,9.23-1.18,3.63-1.69,13.43-3.61,16.37-2.86,3.5.89,3.19-1.6,3.19-1.6l-13.62-4.22s-11.95,4.65-12.97,6.6c-.61,1.16-1.35,2.26-2.2,3.26Z"/><path class="cls-20_social-media-1-48" d="M191.54,340.96c-1.3-1.43-2.95-2.49-4.79-3.07-1.91-.55-3.92.48-4.6,2.35-.14.67-.16,1.6-.81,1.77-.4.14-.8-.1-1.26-.08-.64.08-1.19.52-1.41,1.13-.27.57-.37,1.21-.64,1.8-.67,1.47-2.22,2.25-3.45,3.31s-2.16,2.92-1.18,4.22c.97,1.29,2.73.96,4.17.56,3.53-1.14,7.13-2.09,10.76-2.84,3.67-.75,7.49-.23,10.83,1.49,3.53,2.06,3.43-2,.93-3.45-3.1-2.08-5.97-4.49-8.54-7.19Z"/><path class="cls-5_social-media-1-48" d="M190.82,345.47c-.92-.12-1.82-.42-2.64-.86-1.83-.84-3.7-1.57-5.61-2.19-.1-.03-.2-.08-.29-.14-.1-.11-.16-.24-.18-.38-.16-.81,0-2.35,1.02-2.48s2.22.97,2.83,1.36c1.94,1.19,3.6,2.8,4.86,4.7Z"/><path class="cls-7_social-media-1-48" d="M188.7,346.89c-2.04.59-4.19.59-6.23,0-1.27-.13-2.53-.37-3.75-.72-.11-.03-.21-.08-.3-.14-.1-.11-.16-.24-.18-.38-.16-.77,0-2.35,1.02-2.48s2.22.97,2.84,1.36c1.86,1.53,4.19,2.36,6.6,2.36Z"/></g></svg>